<svg xmlns="http://www.w3.org/2000/svg" width="20" height="20" viewBox="0 0 20 20" fill="none">
  <path d="M10.0001 3.33329C6.31818 3.33329 3.33341 6.31806 3.33341 9.99996C3.33341 13.6819 6.31818 16.6666 10.0001 16.6666C13.682 16.6666 16.6667 13.6819 16.6667 9.99996C16.6667 6.31806 13.682 3.33329 10.0001 3.33329ZM1.66675 9.99996C1.66675 5.39759 5.39771 1.66663 10.0001 1.66663C14.6025 1.66663 18.3334 5.39759 18.3334 9.99996C18.3334 14.6023 14.6025 18.3333 10.0001 18.3333C5.39771 18.3333 1.66675 14.6023 1.66675 9.99996ZM10.0001 5.83329C10.4603 5.83329 10.8334 6.20639 10.8334 6.66663V9.16663H13.3334C13.7937 9.16663 14.1667 9.53972 14.1667 9.99996C14.1667 10.4602 13.7937 10.8333 13.3334 10.8333H10.8334V13.3333C10.8334 13.7935 10.4603 14.1666 10.0001 14.1666C9.53984 14.1666 9.16675 13.7935 9.16675 13.3333V10.8333H6.66675C6.20651 10.8333 5.83341 10.4602 5.83341 9.99996C5.83341 9.53972 6.20651 9.16663 6.66675 9.16663H9.16675V6.66663C9.16675 6.20639 9.53984 5.83329 10.0001 5.83329Z" fill="#FF3847"/>
</svg>